<svg width="512" height="512" viewBox="0 0 512 512" fill="none" xmlns="http://www.w3.org/2000/svg">
  <defs>
    <linearGradient id="dfp-bg" x1="80" y1="64" x2="448" y2="464" gradientUnits="userSpaceOnUse">
      <stop offset="0%" stop-color="#0f172a" />
      <stop offset="100%" stop-color="#0b1220" />
    </linearGradient>
    <linearGradient id="dfp-flow" x1="96" y1="96" x2="416" y2="416" gradientUnits="userSpaceOnUse">
      <stop offset="0%" stop-color="#93c5fd" />
      <stop offset="50%" stop-color="#67e8f9" />
      <stop offset="100%" stop-color="#2dd4bf" />
    </linearGradient>
    <linearGradient id="dfp-accent" x1="264" y1="182" x2="398" y2="316" gradientUnits="userSpaceOnUse">
      <stop offset="0%" stop-color="#38bdf8" />
      <stop offset="100%" stop-color="#14b8a6" />
    </linearGradient>
  </defs>

  <rect x="32" y="32" width="448" height="448" rx="144" fill="url(#dfp-bg)" />
  <rect x="38" y="38" width="436" height="436" rx="138" stroke="rgba(147,197,253,0.22)" stroke-width="12" />
  <path d="M40 40H472V214C438 124 342 72 256 72C170 72 96 108 40 172V40Z" fill="rgba(255,255,255,0.04)" />

  <rect x="116" y="126" width="120" height="120" rx="34" fill="url(#dfp-bg)" stroke="url(#dfp-flow)" stroke-width="16" />
  <rect x="116" y="266" width="120" height="120" rx="34" fill="url(#dfp-bg)" stroke="url(#dfp-flow)" stroke-width="16" />
  <rect x="296" y="196" width="120" height="120" rx="34" fill="url(#dfp-bg)" stroke="url(#dfp-flow)" stroke-width="16" />

  <path d="M238 184H268C285 184 301 191.5 312.5 205L332 226" stroke="url(#dfp-flow)" stroke-width="24" stroke-linecap="round" stroke-linejoin="round" />
  <path d="M238 329H268C285 329 301 321.5 312.5 308L332 287" stroke="url(#dfp-flow)" stroke-width="24" stroke-linecap="round" stroke-linejoin="round" />
  <path d="M262 184V329" stroke="rgba(147,197,253,0.82)" stroke-width="18" stroke-linecap="round" />
  <path d="M336 233L377.5 256L336 279" stroke="url(#dfp-accent)" stroke-width="24" stroke-linecap="round" stroke-linejoin="round" />

  <path d="M153 183H196" stroke="white" stroke-opacity="0.88" stroke-width="16" stroke-linecap="round" />
  <path d="M153 325H196" stroke="white" stroke-opacity="0.88" stroke-width="16" stroke-linecap="round" />
  <circle cx="362" cy="233" r="13" fill="#E0F2FE" />
</svg>
