<svg width="64" height="64" viewBox="0 0 64 64" fill="none" xmlns="http://www.w3.org/2000/svg">
  <defs>
    <linearGradient id="df-bg" x1="10" y1="8" x2="56" y2="58" gradientUnits="userSpaceOnUse">
      <stop offset="0%" stop-color="#0f172a" />
      <stop offset="100%" stop-color="#0b1220" />
    </linearGradient>
    <linearGradient id="df-flow" x1="12" y1="12" x2="52" y2="52" gradientUnits="userSpaceOnUse">
      <stop offset="0%" stop-color="#93c5fd" />
      <stop offset="50%" stop-color="#67e8f9" />
      <stop offset="100%" stop-color="#2dd4bf" />
    </linearGradient>
    <linearGradient id="df-accent" x1="34" y1="24" x2="51" y2="41" gradientUnits="userSpaceOnUse">
      <stop offset="0%" stop-color="#38bdf8" />
      <stop offset="100%" stop-color="#14b8a6" />
    </linearGradient>
  </defs>

  <rect x="4" y="4" width="56" height="56" rx="18" fill="url(#df-bg)" />
  <rect x="4.75" y="4.75" width="54.5" height="54.5" rx="17.25" stroke="rgba(147,197,253,0.22)" stroke-width="1.5" />
  <path d="M5 5H59V28C55.5 18.4 43.5 8 31 8C18.5 8 10 13.5 5 21V5Z" fill="rgba(255,255,255,0.04)" />

  <rect x="13" y="14" width="15" height="15" rx="4.25" fill="url(#df-bg)" stroke="url(#df-flow)" stroke-width="2" />
  <rect x="13" y="36" width="15" height="15" rx="4.25" fill="url(#df-bg)" stroke="url(#df-flow)" stroke-width="2" />
  <rect x="38" y="25" width="15" height="15" rx="4.25" fill="url(#df-bg)" stroke="url(#df-flow)" stroke-width="2" />

  <path d="M28.4 21.3H33C35.1 21.3 37.1 22.2 38.5 23.8L41 26.7" stroke="url(#df-flow)" stroke-width="3" stroke-linecap="round" stroke-linejoin="round" />
  <path d="M28.4 43.2H33C35.1 43.2 37.1 42.3 38.5 40.7L41 37.8" stroke="url(#df-flow)" stroke-width="3" stroke-linecap="round" stroke-linejoin="round" />
  <path d="M32.7 21.3V43.2" stroke="rgba(147,197,253,0.82)" stroke-width="2.2" stroke-linecap="round" />
  <path d="M43 29.7L48.2 32.5L43 35.3" stroke="url(#df-accent)" stroke-width="3" stroke-linecap="round" stroke-linejoin="round" />

  <path d="M17.6 21.2H23" stroke="white" stroke-opacity="0.88" stroke-width="2.1" stroke-linecap="round" />
  <path d="M17.6 43.2H23" stroke="white" stroke-opacity="0.88" stroke-width="2.1" stroke-linecap="round" />
  <circle cx="46" cy="29.7" r="1.8" fill="#E0F2FE" />
</svg>
